<?xml version="1.0" encoding="iso-8859-1"?>
<!-- Uploaded to: SVG Repo, www.svgrepo.com, Generator: SVG Repo Mixer Tools -->
<svg height="800px" width="800px" version="1.1" id="Layer_1" xmlns="http://www.w3.org/2000/svg" xmlns:xlink="http://www.w3.org/1999/xlink" 
	 viewBox="0 0 392.598 392.598" xml:space="preserve">
<path style="fill:#FFC10D;" d="M108.154,21.786c-47.58,0-86.368,38.788-86.368,86.368s38.788,86.368,86.368,86.368
	s86.368-38.723,86.368-86.368S155.798,21.786,108.154,21.786z"/>
<path style="fill:#FFFFFF;" d="M267.248,332.865L178.101,256v114.747h192.582V256l-89.212,76.865
	C279.467,334.675,273.713,337.842,267.248,332.865z"/>
<polygon style="fill:#56ACE0;" points="352.259,243.071 196.59,243.071 274.489,310.174 "/>
<g>
	<path style="fill:#194F82;" d="M381.673,221.285H167.24c-6.012,0-10.925,4.848-10.925,10.925v149.463
		c0,6.012,4.848,10.925,10.925,10.925h214.432c6.012,0,10.925-4.848,10.925-10.925V232.21
		C392.533,226.198,387.685,221.285,381.673,221.285z M370.747,370.747H178.101V256l89.147,76.865c6.335,5.042,12.218,1.745,14.222,0
		L370.618,256v114.747H370.747z M352.259,243.071l-77.899,67.168l-77.834-67.168H352.259z"/>
	<path style="fill:#194F82;" d="M216.372,108.154C216.372,48.485,167.822,0,108.218,0S0,48.55,0,108.154
		s48.549,108.154,108.154,108.154S216.372,167.822,216.372,108.154z M108.154,194.586c-47.58,0-86.368-38.723-86.368-86.368
		s38.788-86.368,86.368-86.368s86.368,38.788,86.368,86.368S155.798,194.586,108.154,194.586z"/>
	<path style="fill:#194F82;" d="M111.063,143.321H82.23c-6.012,0-10.925,4.848-10.925,10.925c0,6.012,4.848,10.925,10.925,10.925
		h15.063v7.111c0,6.012,4.848,10.925,10.925,10.925c6.077,0,10.925-4.848,10.925-10.925v-8.145
		c14.804-3.62,25.988-17.002,25.988-32.905c0-18.683-15.192-33.939-34.004-33.939l-5.689,0.065c-6.723,0-12.154-5.43-12.154-12.154
		s5.43-12.154,12.154-12.154h28.832c6.012,0,10.925-4.848,10.925-10.925c0-6.012-4.848-10.925-10.925-10.925h-15.063v-7.24
		c0-6.012-4.848-10.925-10.925-10.925S97.358,37.883,97.358,43.96v8.145C82.489,55.725,71.37,69.107,71.37,85.01
		c0,18.683,15.192,33.939,34.004,33.939l5.689-0.065c6.723,0,12.154,5.43,12.154,12.154
		C123.216,137.956,117.786,143.321,111.063,143.321z"/>
	<path style="fill:#194F82;" d="M242.101,58.117c41.244,13.705,73.891,44.8,89.535,84.752l-27.733-12.412
		c-5.495-2.457-11.96,0-14.481,5.495s0,11.96,5.495,14.481l47.386,21.269c2.715,1.099,5.495,1.293,8.339,0.259
		c2.715-1.034,4.848-3.103,6.077-5.689l21.269-47.386c2.457-5.495,0-11.96-5.495-14.481c-5.495-2.457-11.96,0-14.481,5.495
		l-8.598,19.135C330.667,85.915,294.4,52.428,248.954,37.366c-5.689-1.939-11.895,1.228-13.77,6.982
		C233.309,49.972,236.347,56.178,242.101,58.117z"/>
	<path style="fill:#194F82;" d="M127.418,324.525c-28.574-15.386-51.459-40.339-64.453-69.883l23.014,10.731
		c5.495,2.521,11.96,0.129,14.481-5.236c2.521-5.495,0.129-11.96-5.236-14.545l-47.063-21.915c-2.651-1.228-5.624-1.293-8.339-0.388
		c-2.715,1.034-4.978,3.038-6.206,5.624l-21.915,47.063c-2.521,5.495-0.129,11.96,5.236,14.545
		c4.073,2.327,11.83,1.034,14.481-5.236l10.796-23.273c14.869,34.521,41.309,63.806,74.731,81.778
		c5.172,2.651,11.766,0.905,14.739-4.396C134.659,333.964,132.655,327.37,127.418,324.525z"/>
</g>
</svg>